<svg id="logo" xmlns="http://www.w3.org/2000/svg" width="119.232" height="36" viewBox="0 0 119.232 36">
  <path id="Path_39" data-name="Path 39" d="M449.071,1302.188h-5.526a8.3,8.3,0,0,1-3.155-.537,6.3,6.3,0,0,1-2.125-1.41,5.218,5.218,0,0,1-1.186-1.969,6.853,6.853,0,0,1-.358-2.215,7.863,7.863,0,0,1,.47-2.73,6.839,6.839,0,0,1,1.342-2.282,6.633,6.633,0,0,1,2.058-1.544,6.507,6.507,0,0,1,5.012-.112,5.29,5.29,0,0,1,3.065,3.177,7.15,7.15,0,0,1,.4,2.439Zm28.706-3.535v-9.71h3.49v13.245h-9.845a8.122,8.122,0,0,1-.716,3.043,5.956,5.956,0,0,1-1.633,2.058,7.157,7.157,0,0,1-2.461,1.163,10.953,10.953,0,0,1-3.065.38c-.47,0-.962,0-1.477-.045a12.624,12.624,0,0,1-1.678-.2l.246-3.4c.6.067,1.163.134,1.678.179.537.045.984.067,1.387.067a9.373,9.373,0,0,0,1.611-.135,4.28,4.28,0,0,0,1.365-.47,2.837,2.837,0,0,0,.94-.984,3.689,3.689,0,0,0,.38-1.656h-2.058a8.269,8.269,0,0,1-3.177-.537,5.792,5.792,0,0,1-2.1-1.41,5.221,5.221,0,0,1-1.186-1.969,6.851,6.851,0,0,1-.358-2.215,7.862,7.862,0,0,1,.47-2.73,7.184,7.184,0,0,1,1.32-2.282,6.549,6.549,0,0,1,2.036-1.544,6.235,6.235,0,0,1,2.618-.559,6.61,6.61,0,0,1,2.461.448,5.253,5.253,0,0,1,1.835,1.253,5.411,5.411,0,0,1,1.163,1.924,7.15,7.15,0,0,1,.4,2.439v3.647Zm16.288,0a4.877,4.877,0,0,1-.515-1.119,6.143,6.143,0,0,1-.291-1.991,6.5,6.5,0,0,1,.492-2.439,6.716,6.716,0,0,1,1.387-2.125,6.95,6.95,0,0,1,2.126-1.477,6.614,6.614,0,0,1,2.774-.559,6.028,6.028,0,0,1,2.349.425,4.965,4.965,0,0,1,1.767,1.208,5.294,5.294,0,0,1,1.141,1.879,7.06,7.06,0,0,1,.4,2.439v7.294H484.243v-18.682h3.49v15.147Zm-48.462,0v-2.73a4.547,4.547,0,0,0-.671-2.663,2.257,2.257,0,0,0-1.969-.94,2.307,2.307,0,0,0-1.007.246,2.8,2.8,0,0,0-.917.626,3.822,3.822,0,0,0-.626,1.007,3.354,3.354,0,0,0-.246,1.3,3.521,3.521,0,0,0,.269,1.454,2.72,2.72,0,0,0,.738.984,2.76,2.76,0,0,0,1.052.537,4.544,4.544,0,0,0,1.231.179Zm-6.757-13.38a1.8,1.8,0,0,1,.515-1.253,1.951,1.951,0,0,1,2.64,0,1.8,1.8,0,0,1,.515,1.253,1.723,1.723,0,0,1-.515,1.253,1.95,1.95,0,0,1-2.64,0A1.722,1.722,0,0,1,438.846,1285.273Zm4.766,0a1.8,1.8,0,0,1,.515-1.253,1.842,1.842,0,0,1,1.32-.515,1.789,1.789,0,0,1,1.3.515,1.73,1.73,0,0,1,.537,1.253,1.658,1.658,0,0,1-.537,1.253,1.7,1.7,0,0,1-1.3.515,1.753,1.753,0,0,1-1.32-.515A1.722,1.722,0,0,1,443.611,1285.273Zm13.178,17.071a8.613,8.613,0,0,1-.38,2.573,5.972,5.972,0,0,1-1.1,2.081,5.214,5.214,0,0,1-1.79,1.387,5.792,5.792,0,0,1-2.484.492,8.283,8.283,0,0,1-1.074-.045c-.313-.022-.6-.067-.85-.09l-.4-.067a3.712,3.712,0,0,1-.425-.09l.4-3.49.85.179a4.457,4.457,0,0,0,.761.112,4.33,4.33,0,0,0,.738.045,1.9,1.9,0,0,0,1.812-.85,5.634,5.634,0,0,0,.448-2.506v-13.133h3.49Zm11.164-3.692v-2.73a4.547,4.547,0,0,0-.671-2.663,2.244,2.244,0,0,0-1.9-.94,2.523,2.523,0,0,0-1.074.246,2.956,2.956,0,0,0-.895.627,3.21,3.21,0,0,0-.626,1.007,2.987,2.987,0,0,0-.246,1.3,3.52,3.52,0,0,0,.269,1.454,2.719,2.719,0,0,0,.738.984,2.757,2.757,0,0,0,1.052.537,4.421,4.421,0,0,0,1.231.179Zm1.141-13.38a1.8,1.8,0,0,1,.515-1.253,1.842,1.842,0,0,1,1.32-.515,1.789,1.789,0,0,1,1.3.515,1.73,1.73,0,0,1,.537,1.253,1.658,1.658,0,0,1-.537,1.253,1.7,1.7,0,0,1-1.3.515,1.753,1.753,0,0,1-1.32-.515A1.722,1.722,0,0,1,469.1,1285.273Zm4.766,0a1.853,1.853,0,0,1,3.132-1.253,1.707,1.707,0,0,1,.515,1.253,1.639,1.639,0,0,1-.515,1.253,1.922,1.922,0,0,1-2.618,0A1.723,1.723,0,0,1,473.861,1285.273Zm28.326,13.38v-3.916a2.812,2.812,0,0,0-.134-.85,2.291,2.291,0,0,0-.448-.783,2.261,2.261,0,0,0-.783-.559,2.844,2.844,0,0,0-1.119-.224,2.8,2.8,0,0,0-1.119.246,2.883,2.883,0,0,0-.94.627,3.6,3.6,0,0,0-.671,1.007,2.989,2.989,0,0,0-.246,1.3,2.93,2.93,0,0,0,.425,1.723,3.909,3.909,0,0,0,.962.962,3.5,3.5,0,0,0,1.41.47Zm-4.027-13.38a1.8,1.8,0,0,1,.515-1.253,1.826,1.826,0,0,1,1.3-.515,1.881,1.881,0,0,1,1.32.515,1.8,1.8,0,0,1,.515,1.253,1.722,1.722,0,0,1-.515,1.253,1.787,1.787,0,0,1-1.32.515,1.758,1.758,0,0,1-1.812-1.768Z" transform="translate(-436.72 -1277.643)" fill="#41979a"/>
  <path id="Path_40" data-name="Path 40" d="M1822.427,1178.962a18,18,0,1,1-16.534,25.1h-6.914a.8.8,0,0,1-.805-.783h0a.765.765,0,0,1,.783-.783h6.332c-.157-.537-.313-1.051-.425-1.588h-2.842a.829.829,0,0,1-.806-.783h0a.8.8,0,0,1,.783-.805h2.6c-.067-.515-.134-1.029-.156-1.566h-6.175a.792.792,0,0,1-.783-.783h0a.77.77,0,0,1,.783-.806h6.175c.022-.537.09-1.051.156-1.566h-2.64a.8.8,0,0,1-.805-.806h0a.778.778,0,0,1,.783-.783h2.931c.112-.537.269-1.052.425-1.589h-1.231a.8.8,0,0,1-.805-.783h0a.792.792,0,0,1,.783-.783h1.857A17.992,17.992,0,0,1,1822.427,1178.962Zm5.638,16.915c.045-.313-.224-.47-.761-.47-.559-.023-.873.134-.917.425a.335.335,0,0,0,.179.4,6.856,6.856,0,0,0,1.007.269,2,2,0,0,1,1.074.515,1.036,1.036,0,0,1,.179.94,1.446,1.446,0,0,1-.828,1.052,3.5,3.5,0,0,1-.962.336l-.157.761h-1.007l.157-.761c-.9-.134-1.342-.6-1.32-1.432l1.052-.067c-.022.492.291.761.962.761.627,0,.962-.2,1.052-.626a.36.36,0,0,0-.134-.425,3.494,3.494,0,0,0-1.007-.313,2,2,0,0,1-1.1-.492.939.939,0,0,1-.2-.85,1.368,1.368,0,0,1,.671-.895,2.009,2.009,0,0,1,1.007-.358l.179-.828h.985l-.179.851c.85.112,1.208.492,1.119,1.163Zm-.179-3.356a3.51,3.51,0,0,1,3.513,4.453,5.716,5.716,0,0,1-5.347,4.43,3.523,3.523,0,0,1-3.535-4.43A5.758,5.758,0,0,1,1827.886,1192.521Zm-28.258,6.8h.224a.8.8,0,0,1,.805.805h0a.779.779,0,0,1-.783.783h-.224a.812.812,0,0,1-.805-.783h0a.8.8,0,0,1,.783-.805Zm1.365-9.464h.6a.793.793,0,0,1,.783.783h0a.774.774,0,0,1-.761.783h-.6a.783.783,0,0,1-.805-.783h0a.778.778,0,0,1,.783-.783Zm9.509,12.641h10.359a.8.8,0,0,0,.783-.805h0a.828.828,0,0,0-.805-.783h-7.271a.8.8,0,0,1-.806-.783h0a.8.8,0,0,1,.783-.805h4.654a.765.765,0,0,0,.783-.783h0a.8.8,0,0,0-.805-.783h-2.506a.793.793,0,0,1-.783-.783h0a.766.766,0,0,1,.761-.806h4.184a.792.792,0,0,0,.783-.783h0a.813.813,0,0,0-.805-.783h-6.332a.8.8,0,0,1-.783-.806h0a.759.759,0,0,1,.761-.783h7.719a.793.793,0,0,0,.783-.783h0a.832.832,0,0,0-.806-.805H1815.6a.784.784,0,0,1-.806-.783h0a.778.778,0,0,1,.783-.783h19.555l-2.953,14.208H1810.5a.793.793,0,0,1-.783-.783h0a.752.752,0,0,1,.783-.783Zm.6-6.332h1.566a.8.8,0,0,1,.805.806h0a.793.793,0,0,1-.783.783h-1.566a.828.828,0,0,1-.805-.783h0A.8.8,0,0,1,1811.106,1196.168Zm-.38-6.309h1.969a.812.812,0,0,1,.805.783h0a.778.778,0,0,1-.783.783h-1.969a.8.8,0,0,1-.805-.783h0A.793.793,0,0,1,1810.726,1189.858Z" transform="translate(-1721.184 -1178.962)" fill="#41979a" fill-rule="evenodd"/>
</svg>
