<svg xmlns="http://www.w3.org/2000/svg" width="92.736" height="28" viewBox="0 0 92.736 28">
    <path fill="#fff" d="M446.326 1298.036h-4.3a6.457 6.457 0 0 1-2.454-.418 4.9 4.9 0 0 1-1.653-1.1 4.059 4.059 0 0 1-.922-1.531 5.331 5.331 0 0 1-.278-1.723 6.116 6.116 0 0 1 .365-2.123 5.321 5.321 0 0 1 1.044-1.775 5.16 5.16 0 0 1 1.6-1.2 5.061 5.061 0 0 1 3.9-.087 4.114 4.114 0 0 1 2.384 2.471 5.561 5.561 0 0 1 .313 1.9zm22.327-2.75v-7.552h2.715v10.3h-7.657a6.318 6.318 0 0 1-.557 2.367 4.633 4.633 0 0 1-1.27 1.6 5.565 5.565 0 0 1-1.914.9 8.515 8.515 0 0 1-2.384.3c-.365 0-.748 0-1.149-.035a9.829 9.829 0 0 1-1.305-.157l.191-2.645c.47.052.9.1 1.305.139.418.035.766.052 1.079.052a7.279 7.279 0 0 0 1.253-.1 3.328 3.328 0 0 0 1.062-.365 2.206 2.206 0 0 0 .731-.766 2.87 2.87 0 0 0 .3-1.288h-1.6a6.428 6.428 0 0 1-2.471-.418 4.506 4.506 0 0 1-1.636-1.1 4.062 4.062 0 0 1-.922-1.531 5.33 5.33 0 0 1-.278-1.723 6.115 6.115 0 0 1 .365-2.123 5.585 5.585 0 0 1 1.027-1.775 5.093 5.093 0 0 1 1.584-1.2 4.849 4.849 0 0 1 2.036-.435 5.14 5.14 0 0 1 1.914.348 4.085 4.085 0 0 1 1.427.974 4.21 4.21 0 0 1 .9 1.5 5.561 5.561 0 0 1 .313 1.9v2.836zm12.669 0a3.793 3.793 0 0 1-.4-.87 4.78 4.78 0 0 1-.226-1.549 5.06 5.06 0 0 1 .383-1.9 5.223 5.223 0 0 1 1.079-1.653 5.4 5.4 0 0 1 1.653-1.149 5.144 5.144 0 0 1 2.158-.435 4.69 4.69 0 0 1 1.827.331 3.865 3.865 0 0 1 1.375.94 4.119 4.119 0 0 1 .888 1.462 5.491 5.491 0 0 1 .313 1.9v5.673h-16.69v-14.531h2.718v11.781zm-37.693 0v-2.123a3.537 3.537 0 0 0-.522-2.071 1.756 1.756 0 0 0-1.531-.731 1.793 1.793 0 0 0-.783.191 2.174 2.174 0 0 0-.714.487 2.975 2.975 0 0 0-.487.783 2.609 2.609 0 0 0-.191 1.009 2.737 2.737 0 0 0 .209 1.131 2.116 2.116 0 0 0 .574.766 2.145 2.145 0 0 0 .818.418 3.532 3.532 0 0 0 .957.139zm-5.255-10.406a1.4 1.4 0 0 1 .4-.975 1.517 1.517 0 0 1 2.053 0 1.4 1.4 0 0 1 .4.975 1.34 1.34 0 0 1-.4.974 1.517 1.517 0 0 1-2.053 0 1.339 1.339 0 0 1-.401-.974zm3.707 0a1.4 1.4 0 0 1 .4-.975 1.432 1.432 0 0 1 1.027-.4 1.392 1.392 0 0 1 1.009.4 1.345 1.345 0 0 1 .418.975 1.289 1.289 0 0 1-.418.974 1.325 1.325 0 0 1-1.009.4 1.363 1.363 0 0 1-1.027-.4 1.339 1.339 0 0 1-.401-.974zm10.25 13.278a6.7 6.7 0 0 1-.3 2 4.646 4.646 0 0 1-.853 1.618 4.054 4.054 0 0 1-1.392 1.079 4.5 4.5 0 0 1-1.932.383 6.449 6.449 0 0 1-.835-.035c-.244-.017-.47-.052-.661-.07l-.313-.052a2.881 2.881 0 0 1-.331-.07l.313-2.715.661.139a3.458 3.458 0 0 0 .592.087 3.372 3.372 0 0 0 .574.035 1.475 1.475 0 0 0 1.41-.661 4.382 4.382 0 0 0 .348-1.949v-10.215h2.715zm8.683-2.871v-2.123a3.536 3.536 0 0 0-.522-2.071 1.746 1.746 0 0 0-1.479-.731 1.961 1.961 0 0 0-.835.191 2.3 2.3 0 0 0-.7.487 2.5 2.5 0 0 0-.487.783 2.324 2.324 0 0 0-.191 1.009 2.738 2.738 0 0 0 .209 1.131 2.115 2.115 0 0 0 .574.766 2.144 2.144 0 0 0 .818.418 3.438 3.438 0 0 0 .957.139zm.888-10.406a1.4 1.4 0 0 1 .4-.975 1.432 1.432 0 0 1 1.027-.4 1.392 1.392 0 0 1 1.009.4 1.346 1.346 0 0 1 .418.975 1.29 1.29 0 0 1-.418.974 1.325 1.325 0 0 1-1.009.4 1.364 1.364 0 0 1-1.027-.4 1.339 1.339 0 0 1-.402-.975zm3.707 0a1.441 1.441 0 0 1 2.436-.975 1.328 1.328 0 0 1 .4.975 1.275 1.275 0 0 1-.4.974 1.495 1.495 0 0 1-2.036 0 1.34 1.34 0 0 1-.401-.975zm22.031 10.406v-3.045a2.188 2.188 0 0 0-.1-.661 1.781 1.781 0 0 0-.348-.609 1.758 1.758 0 0 0-.609-.435 2.209 2.209 0 0 0-.87-.174 2.179 2.179 0 0 0-.87.191 2.243 2.243 0 0 0-.731.487 2.8 2.8 0 0 0-.522.783 2.326 2.326 0 0 0-.191 1.009 2.279 2.279 0 0 0 .331 1.34 3.038 3.038 0 0 0 .748.748 2.725 2.725 0 0 0 1.1.366zm-3.132-10.406a1.4 1.4 0 0 1 .4-.975 1.42 1.42 0 0 1 1.009-.4 1.462 1.462 0 0 1 1.027.4 1.4 1.4 0 0 1 .4.975 1.339 1.339 0 0 1-.4.974 1.39 1.39 0 0 1-1.027.4 1.368 1.368 0 0 1-1.409-1.375z" transform="translate(-436.72 -1278.946)"/>
    <path fill="#fff" fill-rule="evenodd" d="M1816.883 1178.962a14 14 0 1 1-12.86 19.525h-5.377a.62.62 0 0 1-.626-.609.6.6 0 0 1 .609-.609h4.925c-.122-.418-.244-.818-.331-1.235h-2.21a.644.644 0 0 1-.627-.609.621.621 0 0 1 .609-.626h2.019c-.052-.4-.1-.8-.122-1.218h-4.8a.616.616 0 0 1-.609-.609.6.6 0 0 1 .609-.626h4.8c.017-.418.07-.818.122-1.218h-2.053a.624.624 0 0 1-.626-.626.605.605 0 0 1 .609-.609h2.28c.087-.417.209-.818.331-1.236h-.957a.62.62 0 0 1-.626-.609.616.616 0 0 1 .609-.609h1.444a13.994 13.994 0 0 1 12.858-8.477zm4.385 13.156c.035-.243-.174-.365-.592-.365-.435-.017-.679.1-.714.331a.261.261 0 0 0 .139.313 5.353 5.353 0 0 0 .783.209 1.558 1.558 0 0 1 .835.4.806.806 0 0 1 .139.731 1.125 1.125 0 0 1-.644.818 2.728 2.728 0 0 1-.748.261l-.122.592h-.783l.122-.592c-.7-.1-1.044-.47-1.027-1.114l.818-.052c-.017.383.226.592.748.592.487 0 .749-.157.818-.487a.28.28 0 0 0-.1-.331 2.728 2.728 0 0 0-.783-.244 1.556 1.556 0 0 1-.853-.383.73.73 0 0 1-.157-.661 1.064 1.064 0 0 1 .522-.7 1.561 1.561 0 0 1 .783-.278l.139-.644h.766l-.14.662c.661.087.94.383.87.9zm-.139-2.61a2.73 2.73 0 0 1 2.732 3.463 4.445 4.445 0 0 1-4.159 3.445 2.74 2.74 0 0 1-2.75-3.445 4.479 4.479 0 0 1 4.177-3.463zm-21.979 5.29h.174a.624.624 0 0 1 .626.626.605.605 0 0 1-.609.609h-.174a.632.632 0 0 1-.626-.609.62.62 0 0 1 .609-.626zm1.061-7.361h.47a.617.617 0 0 1 .609.609.6.6 0 0 1-.592.609h-.47a.609.609 0 0 1-.626-.609.6.6 0 0 1 .609-.609zm7.4 9.832h8.057a.62.62 0 0 0 .609-.626.644.644 0 0 0-.626-.609h-5.655a.621.621 0 0 1-.627-.609.621.621 0 0 1 .609-.626h3.619a.595.595 0 0 0 .609-.609.62.62 0 0 0-.626-.609h-1.949a.617.617 0 0 1-.609-.609.6.6 0 0 1 .592-.627h3.254a.616.616 0 0 0 .609-.609.632.632 0 0 0-.626-.609h-4.925a.621.621 0 0 1-.609-.626.591.591 0 0 1 .592-.609h6a.617.617 0 0 0 .609-.609.647.647 0 0 0-.627-.626h-4.316a.609.609 0 0 1-.626-.609.6.6 0 0 1 .609-.609h15.209l-2.3 11.05h-16.863a.617.617 0 0 1-.609-.609.585.585 0 0 1 .609-.609zm.47-4.925h1.218a.624.624 0 0 1 .626.627.617.617 0 0 1-.609.609h-1.216a.644.644 0 0 1-.626-.609.62.62 0 0 1 .604-.627zm-.3-4.907h1.531a.632.632 0 0 1 .626.609.6.6 0 0 1-.609.609h-1.529a.62.62 0 0 1-.626-.609.616.616 0 0 1 .608-.609z" transform="translate(-1738.139 -1178.962)"/>
</svg>
