<svg xmlns="http://www.w3.org/2000/svg" width="12" height="12" viewBox="0 0 12 12">
    <defs>
        <clipPath id="37004ouyea">
            <path fill="none" d="M0 0H12V12H0z" transform="translate(283 34)"/>
        </clipPath>
    </defs>
    <g clip-path="url(#37004ouyea)" transform="translate(-283 -34)">
        <path fill="#fff" d="M3.983 550.256a.6.6 0 0 0-.51.311l-.761 1.4-1.4.762a.6.6 0 0 0 0 1.055l1.4.762.761 1.4a.6.6 0 0 0 1.054 0l.766-1.4 1.394-.762a.6.6 0 0 0 0-1.054l-1.394-.762-.766-1.4a.6.6 0 0 0-.544-.312zM4 552.1l.323.589a.6.6 0 0 0 .239.239l.589.323-.589.323a.6.6 0 0 0-.239.239l-.323.592-.319-.588a.6.6 0 0 0-.239-.239l-.589-.323.589-.323a.6.6 0 0 0 .239-.239zm6 .552a.6.6 0 1 0 .6.6.6.6 0 0 0-.6-.6zm-.015 3.6a.6.6 0 0 0-.51.314l-.761 1.394-1.4.766a.6.6 0 0 0 0 1.055l1.4.761.761 1.4a.6.6 0 0 0 1.054 0l.761-1.4 1.4-.761a.6.6 0 0 0 0-1.054l-1.4-.766-.761-1.394a.6.6 0 0 0-.542-.315zM10 558.1l.323.589a.6.6 0 0 0 .239.239l.589.323-.589.319a.6.6 0 0 0-.239.239L10 560.4l-.323-.589a.6.6 0 0 0-.239-.239l-.588-.319.588-.323a.6.6 0 0 0 .239-.239zm-6 .551a.6.6 0 1 0 .6.6.6.6 0 0 0-.6-.6z" transform="translate(282 -516.256)"/>
    </g>
</svg>
